<svg width="77" height="55" viewBox="0 0 77 55" fill="none" xmlns="http://www.w3.org/2000/svg">
<path d="M12.6703 55C11.0032 55 9.37319 54.7247 7.78003 54.1742C6.22402 53.6604 4.94587 52.7978 3.94558 51.5866C2.94529 50.3754 2.44515 48.7605 2.44515 46.7417V46.2462C2.51913 45.2184 2.64903 44.0258 2.83415 42.6677C3.05644 41.2731 3.27872 39.8967 3.50101 38.5385C3.7233 37.1804 3.85285 36.0242 3.89001 35.0701V34.5746C3.89001 33.2533 3.64932 32.3906 3.16758 31.987C2.72301 31.5465 2.07456 31.3263 1.22258 31.3263H0V23.7287H1.22258C2.07456 23.7287 2.72301 23.5267 3.16758 23.1231C3.64932 22.6827 3.89001 21.7836 3.89001 20.4254V19.9299C3.85285 18.9758 3.7233 17.8378 3.50101 16.5165C3.27872 15.1584 3.05644 13.782 2.83415 12.3874C2.64903 10.9928 2.51913 9.76308 2.44515 8.6987V8.2032C2.44515 6.18451 2.94529 4.58791 3.94558 3.41341C4.94587 2.2022 6.22402 1.33966 7.78003 0.825826C9.37319 0.275276 11.0032 0 12.6703 0H15.5045L15.949 2.53253H12.6703C11.4478 2.53253 10.2436 2.71604 9.05817 3.08308C7.90958 3.41341 6.94645 3.9823 6.16845 4.78979C5.39045 5.59727 5.00145 6.73506 5.00145 8.2032V8.58859C5.07543 9.65297 5.20532 10.8827 5.39045 12.2773C5.61273 13.6719 5.83502 15.0483 6.0573 16.4064C6.27959 17.7277 6.40914 18.8656 6.4463 19.8198V20.5355C6.4463 22.1872 6.24243 23.4166 5.83502 24.2242C5.42761 24.995 4.90871 25.5087 4.27902 25.7658C3.68614 25.986 3.11201 26.0961 2.55629 26.0961H2.44515V28.959H2.55629C3.11201 28.959 3.68614 29.0873 4.27902 29.3443C4.90871 29.5646 5.42761 30.0601 5.83502 30.8308C6.24243 31.6016 6.4463 32.8128 6.4463 34.4645V35.1802C6.40914 36.1344 6.27959 37.2905 6.0573 38.6486C5.83502 40.0068 5.61273 41.3832 5.39045 42.7778C5.20532 44.1359 5.07543 45.3285 5.00145 46.3564V46.7417C5.00145 48.21 5.39045 49.3476 6.16845 50.1552C6.94645 50.9992 7.90958 51.5866 9.05817 51.9169C10.2436 52.2472 11.4478 52.4307 12.6703 52.4675L15.949 52.5225L15.5045 55H12.6703ZM14.5598 50.8158C12.2997 50.8158 10.6326 50.2835 9.55832 49.2192C8.52086 48.1914 8.00231 46.6316 8.00231 44.5395V43.7137C8.03948 42.7227 8.16903 41.6216 8.39131 40.4104C8.6136 39.1992 8.83588 37.988 9.05817 36.7768C9.28046 35.5287 9.3916 34.3726 9.3916 33.3083C9.3916 32.0238 9.11374 30.996 8.55803 30.2252C8.03947 29.4176 7.16874 28.8857 5.94616 28.6286V26.4264C7.35386 26.1329 8.28017 25.5638 8.72474 24.7197C9.16932 23.8757 9.3916 22.8847 9.3916 21.7467C9.3916 20.6825 9.28046 19.5263 9.05817 18.2783C8.83588 17.0303 8.6136 15.8008 8.39131 14.5896C8.16903 13.3784 8.03948 12.2773 8.00231 11.2863V10.4605C8.00231 8.33165 8.52086 6.75343 9.55832 5.72573C10.6326 4.69802 12.2997 4.18419 14.5598 4.18419H16.1713L16.6159 6.60661H14.5598C13.1521 6.60661 12.133 6.95528 11.5033 7.65265C10.8736 8.35003 10.5586 9.34102 10.5586 10.6256V11.1762C10.5958 12.1672 10.7253 13.2865 10.9476 14.5345C11.1699 15.7826 11.3922 17.0303 11.6145 18.2783C11.8368 19.5263 11.9479 20.6825 11.9479 21.7467C11.9479 25.0869 10.6697 26.9952 8.11345 27.4725V27.6376C9.44717 27.8947 10.4103 28.5368 11.0032 29.5646C11.6329 30.5924 11.9479 31.8401 11.9479 33.3083C11.9479 34.3726 11.8368 35.5287 11.6145 36.7768C11.3922 38.0248 11.1699 39.2725 10.9476 40.5205C10.7253 41.7317 10.5958 42.8511 10.5586 43.8789V44.4294C10.5586 45.6775 10.8736 46.6316 11.5033 47.2923C12.133 47.9898 13.1521 48.3566 14.5598 48.3934L16.6159 48.4484L16.1713 50.8158H14.5598ZM24.7512 46.7968C23.751 46.7968 22.9542 46.5033 22.3617 45.9159C21.806 45.3285 21.5281 44.5578 21.5281 43.6036C21.5281 42.6859 21.806 41.9337 22.3617 41.3463C22.9542 40.759 23.751 40.4655 24.7512 40.4655C25.7515 40.4655 26.5295 40.759 27.0852 41.3463C27.6778 41.9337 27.9744 42.6859 27.9744 43.6036C27.9744 44.5578 27.6778 45.3285 27.0852 45.9159C26.5295 46.5033 25.7515 46.7968 24.7512 46.7968ZM38.4812 46.7968C37.481 46.7968 36.6842 46.5033 36.0917 45.9159C35.536 45.3285 35.2581 44.5578 35.2581 43.6036C35.2581 42.6859 35.536 41.9337 36.0917 41.3463C36.6842 40.759 37.481 40.4655 38.4812 40.4655C39.4815 40.4655 40.2595 40.759 40.8152 41.3463C41.4078 41.9337 41.7044 42.6859 41.7044 43.6036C41.7044 44.5578 41.4078 45.3285 40.8152 45.9159C40.2595 46.5033 39.4815 46.7968 38.4812 46.7968ZM52.2112 46.7968C51.211 46.7968 50.4145 46.5033 49.8217 45.9159C49.266 45.3285 48.9881 44.5578 48.9881 43.6036C48.9881 42.6859 49.266 41.9337 49.8217 41.3463C50.4145 40.759 51.211 40.4655 52.2112 40.4655C53.2115 40.4655 53.9895 40.759 54.5453 41.3463C55.1381 41.9337 55.4344 42.6859 55.4344 43.6036C55.4344 44.5578 55.1381 45.3285 54.5453 45.9159C53.9895 46.5033 53.2115 46.7968 52.2112 46.7968ZM74.5548 46.7417C74.5548 48.7605 74.0547 50.3754 73.0544 51.5866C72.0541 52.7978 70.776 53.6604 69.22 54.1742C67.664 54.7247 66.034 55 64.3297 55H61.4955L61.051 52.4675H64.3297C65.5523 52.4675 66.7564 52.2841 67.9418 51.9169C69.1276 51.5866 70.0907 50.9992 70.8316 50.1552C71.6096 49.3476 71.9986 48.21 71.9986 46.7417V46.3564C71.9617 45.3285 71.8318 44.1359 71.6096 42.7778C71.3873 41.3832 71.165 40.0068 70.9427 38.6486C70.7204 37.2905 70.5909 36.1344 70.5537 35.1802V34.4645C70.5537 32.8128 70.7576 31.6016 71.165 30.8308C71.5727 30.0601 72.0729 29.5646 72.6654 29.3443C73.2955 29.0873 73.888 28.959 74.4437 28.959H74.5548V26.0961H74.4437C73.888 26.0961 73.2955 25.986 72.6654 25.7658C72.0729 25.5087 71.5727 24.995 71.165 24.2242C70.7576 23.4166 70.5537 22.1872 70.5537 20.5355V19.8198C70.5909 18.8656 70.7204 17.7277 70.9427 16.4064C71.165 15.0483 71.3873 13.6719 71.6096 12.2773C71.8318 10.8827 71.9617 9.65297 71.9986 8.58859V8.2032C71.9986 6.73506 71.6096 5.59727 70.8316 4.78979C70.0907 3.9823 69.1276 3.41341 67.9418 3.08308C66.7564 2.71604 65.5523 2.53253 64.3297 2.53253H61.051L61.4955 0H64.3297C66.034 0 67.664 0.275276 69.22 0.825826C70.776 1.33966 72.0541 2.2022 73.0544 3.41341C74.0547 4.58791 74.5548 6.18451 74.5548 8.2032V8.6987C74.518 9.76308 74.3881 10.9928 74.1658 12.3874C73.9436 13.782 73.7213 15.1584 73.499 16.5165C73.2767 17.8378 73.1472 18.9758 73.11 19.9299V20.4254C73.11 21.7836 73.3323 22.6827 73.7768 23.1231C74.2586 23.5267 74.9254 23.7287 75.7774 23.7287H77V31.3263H75.7774C74.9254 31.3263 74.2586 31.5465 73.7768 31.987C73.3323 32.3906 73.11 33.2533 73.11 34.5746V35.0701C73.1472 36.0242 73.2767 37.1804 73.499 38.5385C73.7213 39.8967 73.9436 41.2731 74.1658 42.6677C74.3881 44.0258 74.518 45.2184 74.5548 46.2462V46.7417ZM60.3841 48.3934H62.4402C63.8483 48.3934 64.867 48.0448 65.4967 47.3473C66.1267 46.6499 66.4414 45.6775 66.4414 44.4294V43.8789C66.4046 42.8511 66.2747 41.7317 66.0524 40.5205C65.8301 39.2725 65.6078 38.0248 65.3855 36.7768C65.1633 35.5287 65.0521 34.3726 65.0521 33.3083C65.0521 31.8401 65.3487 30.5924 65.9413 29.5646C66.5713 28.5368 67.5528 27.8947 68.8866 27.6376V27.4725C66.3303 26.9952 65.0521 25.0869 65.0521 21.7467C65.0521 20.6825 65.1633 19.5263 65.3855 18.2783C65.6078 17.0303 65.8301 15.7826 66.0524 14.5345C66.2747 13.2865 66.4046 12.1672 66.4414 11.1762V10.6256C66.4414 9.34102 66.1267 8.35003 65.4967 7.65265C64.867 6.95528 63.8483 6.60661 62.4402 6.60661H60.3841L60.8287 4.18419H62.4402C64.7374 4.18419 66.4046 4.69802 67.4417 5.72573C68.4791 6.75343 68.9977 8.33165 68.9977 10.4605V11.2863C68.9609 12.2773 68.831 13.3784 68.6087 14.5896C68.3864 15.8008 68.1641 17.0303 67.9418 18.2783C67.7195 19.5263 67.6084 20.6825 67.6084 21.7467C67.6084 22.8847 67.8307 23.8757 68.2753 24.7197C68.7198 25.5638 69.6461 26.1329 71.0538 26.4264V28.6286C69.8313 28.8857 68.9421 29.4176 68.3864 30.2252C67.8679 30.996 67.6084 32.0238 67.6084 33.3083C67.6084 34.3726 67.7195 35.5287 67.9418 36.7768C68.1641 37.988 68.3864 39.1992 68.6087 40.4104C68.831 41.6216 68.9609 42.7227 68.9977 43.7137V44.5395C68.9977 46.6316 68.4791 48.1914 67.4417 49.2192C66.4046 50.2835 64.7374 50.8158 62.4402 50.8158H60.8287L60.3841 48.3934Z" fill="#09090B"/>
<path d="M39.3052 21.0156H33.4614L33.4302 17.7969H38.3364C39.201 17.7969 39.9093 17.6875 40.4614 17.4688C41.0135 17.2396 41.425 16.9115 41.6958 16.4844C41.9771 16.0469 42.1177 15.5156 42.1177 14.8906C42.1177 14.1823 41.9823 13.6094 41.7114 13.1719C41.451 12.7344 41.0396 12.4167 40.4771 12.2188C39.925 12.0208 39.2114 11.9219 38.3364 11.9219H35.0864V31H30.3989V8.25H38.3364C39.6593 8.25 40.8416 8.375 41.8833 8.625C42.9354 8.875 43.826 9.25521 44.5552 9.76562C45.2843 10.276 45.8416 10.9219 46.2271 11.7031C46.6125 12.474 46.8052 13.3906 46.8052 14.4531C46.8052 15.3906 46.5916 16.2552 46.1646 17.0469C45.7479 17.8385 45.0864 18.4844 44.1802 18.9844C43.2843 19.4844 42.1125 19.7604 40.6646 19.8125L39.3052 21.0156ZM39.1021 31H32.1802L34.0083 27.3438H39.1021C39.925 27.3438 40.5968 27.2135 41.1177 26.9531C41.6385 26.6823 42.0239 26.3177 42.2739 25.8594C42.5239 25.401 42.6489 24.875 42.6489 24.2812C42.6489 23.6146 42.5343 23.0365 42.3052 22.5469C42.0864 22.0573 41.7323 21.6823 41.2427 21.4219C40.7531 21.151 40.1073 21.0156 39.3052 21.0156H34.7896L34.8208 17.7969H40.4458L41.5239 19.0625C42.9093 19.0417 44.0239 19.2865 44.8677 19.7969C45.7218 20.2969 46.3416 20.9479 46.7271 21.75C47.1229 22.5521 47.3208 23.4115 47.3208 24.3281C47.3208 25.7865 47.0031 27.0156 46.3677 28.0156C45.7323 29.0052 44.8 29.75 43.5708 30.25C42.3521 30.75 40.8625 31 39.1021 31Z" fill="#09090B"/>
</svg>
